<svg width="16" height="16" viewBox="0 0 16 16" fill="none" xmlns="http://www.w3.org/2000/svg">
<path d="M12.7937 3.6368C12.7899 3.62937 12.7835 3.62356 12.7758 3.62039C11.8823 3.21044 10.9394 2.91811 9.97064 2.75072C9.96184 2.74908 9.95275 2.75026 9.94466 2.75409C9.93657 2.75792 9.92989 2.7642 9.92557 2.77205C9.79718 3.00508 9.68062 3.24445 9.57636 3.48923C8.53213 3.33072 7.46997 3.33072 6.42575 3.48923C6.32079 3.24383 6.20237 3.0044 6.07102 2.77205C6.06652 2.76437 6.0598 2.75823 6.05176 2.75443C6.04372 2.75063 6.03472 2.74933 6.02593 2.75072C5.05711 2.91775 4.11414 3.21011 3.22074 3.62041C3.21309 3.62365 3.20664 3.62919 3.20227 3.63626C1.41565 6.30433 0.926231 8.90681 1.16632 11.4771C1.167 11.4834 1.16894 11.4895 1.17202 11.495C1.1751 11.5005 1.17926 11.5054 1.18425 11.5093C2.22459 12.2796 3.38821 12.8675 4.62547 13.2481C4.63418 13.2507 4.64348 13.2506 4.65213 13.2478C4.66077 13.2449 4.66834 13.2395 4.67382 13.2322C4.93955 12.8707 5.17502 12.4878 5.37781 12.0875C5.3806 12.082 5.38219 12.076 5.38248 12.0698C5.38277 12.0637 5.38175 12.0576 5.37949 12.0518C5.37724 12.0461 5.37379 12.0409 5.36939 12.0366C5.36498 12.0323 5.35971 12.029 5.35393 12.0269C4.98262 11.8848 4.62315 11.7135 4.2789 11.5147C4.27264 11.511 4.26739 11.5058 4.2636 11.4997C4.25982 11.4935 4.25761 11.4864 4.25718 11.4792C4.25675 11.472 4.25811 11.4647 4.26115 11.4581C4.26418 11.4515 4.26878 11.4458 4.27456 11.4414C4.34679 11.3873 4.41907 11.331 4.48805 11.2741C4.49418 11.2691 4.5016 11.2659 4.50946 11.2648C4.51733 11.2637 4.52534 11.2649 4.53258 11.2681C6.78795 12.2974 9.22969 12.2974 11.4584 11.2681C11.4656 11.2647 11.4737 11.2634 11.4817 11.2643C11.4897 11.2653 11.4972 11.2685 11.5035 11.2736C11.5725 11.3305 11.6447 11.3873 11.7175 11.4414C11.7233 11.4458 11.7279 11.4515 11.731 11.458C11.7341 11.4646 11.7355 11.4718 11.7351 11.4791C11.7348 11.4863 11.7326 11.4933 11.7289 11.4995C11.7251 11.5058 11.7199 11.511 11.7137 11.5147C11.3702 11.7152 11.0104 11.8864 10.6381 12.0263C10.6324 12.0285 10.6271 12.0319 10.6227 12.0363C10.6184 12.0407 10.6149 12.0459 10.6127 12.0517C10.6105 12.0574 10.6096 12.0636 10.6099 12.0698C10.6102 12.076 10.6119 12.082 10.6147 12.0875C10.8209 12.4856 11.056 12.868 11.3182 13.2316C11.3235 13.2391 11.331 13.2447 11.3397 13.2476C11.3484 13.2506 11.3577 13.2507 11.3665 13.248C12.606 12.8688 13.7716 12.2807 14.8133 11.5093C14.8184 11.5056 14.8226 11.5008 14.8257 11.4954C14.8288 11.4899 14.8306 11.4839 14.8312 11.4776C15.1186 8.50612 14.35 5.92497 12.7937 3.6368ZM5.71463 9.91204C5.0356 9.91204 4.4761 9.28891 4.4761 8.52363C4.4761 7.75835 5.02475 7.13517 5.71463 7.13517C6.4099 7.13517 6.96399 7.76376 6.95314 8.52358C6.95314 9.28891 6.40447 9.91204 5.71463 9.91204ZM10.2938 9.91204C9.61484 9.91204 9.05534 9.28891 9.05534 8.52363C9.05534 7.75835 9.60399 7.13517 10.2938 7.13517C10.9892 7.13517 11.5432 7.76376 11.5324 8.52358C11.5324 9.28891 10.9892 9.91204 10.2938 9.91204Z" fill="white" fill-opacity="0.6"/>
</svg>
