<svg width="1346" height="80" viewBox="0 0 1346 80" fill="none" xmlns="http://www.w3.org/2000/svg">
<path d="M1345 0V80M1340.5 0V80M1336.5 0V80M1332.5 0V80M1328.51 0V80M1324.51 0V80M1320.51 0V80M1316.51 0V80M1312.51 0V80M1308.51 0V80M1304.52 0V80M1300.52 0V80M1296.52 0V80M1292.52 0V80M1288.52 0V80M1284.52 0V80M1280.52 0V80M1276.53 0V80M1272.53 0V80M1268.53 0V80M1264.53 0V80M1260.53 0V80M1256.53 0V80M1252.53 0V80M1248.54 0V80M1244.54 0V80M1240.54 0V80M1236.54 0V80M1232.54 0V80M1228.54 0V80M1224.54 0V80M1220.55 0V80M1216.55 0V80M1212.55 0V80M1208.55 0V80M1204.55 0V80M1200.55 0V80M1196.56 0V80M1192.56 0V80M1188.56 0V80M1184.56 0V80M1180.56 0V80M1176.56 0V80M1172.56 0V80M1168.57 0V80M1164.57 0V80M1160.57 0V80M1156.57 0V80M1152.57 0V80M1148.57 0V80M1144.57 0V80M1140.58 0V80M1136.58 0V80M1132.58 0V80M1128.58 0V80M1124.58 0V80M1120.58 0V80M1116.58 0V80M1112.59 0V80M1108.59 0V80M1104.59 0V80M1100.59 0V80M1096.59 0V80M1092.59 0V80M1088.6 0V80M1084.6 0V80M1080.6 0V80M1076.6 0V80M1072.6 0V80M1068.6 0V80M1064.6 0V80M1060.61 0V80M1056.61 0V80M1052.61 0V80M1048.61 0V80M1044.61 0V80M1040.61 0V80M1036.61 0V80M1032.62 0V80M1028.62 0V80M1024.62 0V80M1020.62 0V80M1016.62 0V80M1012.62 0V80M1008.63 0V80M1004.63 0V80M1000.63 0V80M996.63 0V80M992.631 0V80M988.633 0V80M984.634 0V80M980.635 0V80M976.637 0V80M972.639 0V80M968.64 0V80M964.641 0V80M960.643 0V80M956.644 0V80M952.646 0V80M948.647 0V80M944.649 0V80M940.65 0V80M936.652 0V80M932.653 0V80M928.655 0V80M924.656 0V80M920.658 0V80M916.659 0V80M912.661 0V80M908.662 0V80M904.664 0V80M900.665 0V80M896.667 0V80M892.668 0V80M888.67 0V80M884.671 0V80M880.673 0V80M876.674 0V80M872.676 0V80M868.677 0V80M864.679 0V80M860.68 0V80M856.682 0V80M852.683 0V80M848.685 0V80M844.686 0V80M840.688 0V80M836.689 0V80M832.691 0V80M828.692 0V80M824.694 0V80M820.695 0V80M816.697 0V80M812.698 0V80M808.7 0V80M804.701 0V80M800.703 0V80M796.704 0V80M792.705 0V80M788.707 0V80M784.708 0V80M780.71 0V80M776.711 0V80M772.713 0V80M768.714 0V80M764.716 0V80M760.717 0V80M756.719 0V80M752.72 0V80M748.722 0V80M744.723 0V80M740.725 0V80M736.726 0V80M732.728 0V80M728.729 0V80M724.731 0V80M720.732 0V80M716.734 0V80M712.735 0V80M708.737 0V80M704.738 0V80M700.74 0V80M696.741 0V80M692.743 0V80M688.744 0V80M684.746 0V80M680.747 0V80M676.749 0V80M672.75 0V80M668.752 0V80M664.753 0V80M660.755 0V80M656.756 0V80M652.758 0V80M648.759 0V80M644.76 0V80M640.762 0V80M636.763 0V80M632.765 0V80M628.766 0V80M624.768 0V80M620.769 0V80M616.771 0V80M612.772 0V80M608.774 0V80M604.775 0V80M600.777 0V80M596.778 0V80M592.78 0V80M588.781 0V80M584.783 0V80M580.784 0V80M576.786 0V80M572.787 0V80M568.789 0V80M564.79 0V80M560.792 0V80M556.793 0V80M552.795 0V80M548.796 0V80M544.798 0V80M540.799 0V80M536.801 0V80M532.802 0V80M528.804 0V80M524.805 0V80M520.807 0V80M516.808 0V80M512.81 0V80M508.811 0V80M504.813 0V80M500.814 0V80M496.816 0V80M492.817 0V80M488.819 0V80M484.82 0V80M480.822 0V80M476.823 0V80M472.825 0V80M468.826 0V80M464.827 0V80M460.829 0V80M456.83 0V80M452.832 0V80M448.833 0V80M444.835 0V80M440.836 0V80M436.838 0V80M432.839 0V80M428.841 0V80M424.842 0V80M420.844 0V80M416.845 0V80M412.847 0V80M408.848 0V80M404.85 0V80M400.851 0V80M396.853 0V80M392.854 0V80M388.856 0V80M384.857 0V80M380.859 0V80M376.86 0V80M372.862 0V80M368.863 0V80M364.865 0V80M360.866 0V80M356.868 0V80M352.869 0V80M348.871 0V80M344.872 0V80M340.874 0V80M336.875 0V80M332.877 0V80M328.878 0V80M324.88 0V80M320.881 0V80M316.882 0V80M312.884 0V80M308.885 0V80M304.887 0V80M300.888 0V80M296.89 0V80M292.891 0V80M288.893 0V80M284.894 0V80M280.896 0V80M276.897 0V80M272.899 0V80M268.9 0V80M264.902 0V80M260.903 0V80M256.905 0V80M252.906 0V80M248.908 0V80M244.909 0V80M240.911 0V80M236.912 0V80M232.914 0V80M228.915 0V80M224.917 0V80M220.918 0V80M216.92 0V80M212.921 0V80M208.923 0V80M204.924 0V80M200.926 0V80M196.927 0V80M192.929 0V80M188.93 0V80M184.932 0V80M180.933 0V80M176.935 0V80M172.936 0V80M168.938 0V80M164.939 0V80M160.941 0V80M156.942 0V80M152.943 0V80M148.945 0V80M144.946 0V80M140.948 0V80M136.949 0V80M132.951 0V80M128.952 0V80M124.954 0V80M120.955 0V80M116.957 0V80M112.958 0V80M108.96 0V80M104.961 0V80M100.963 0V80M96.9644 0V80M92.9658 0V80M88.9673 0V80M84.9688 0V80M80.9702 0V80M76.9718 0V80M72.9733 0V80M68.9747 0V80M64.9762 0V80M60.9777 0V80M56.9792 0V80M52.9807 0V80M48.9822 0V80M44.9836 0V80M40.9851 0V80M36.9866 0V80M32.9882 0V80M28.9896 0V80M24.9911 0V80M20.9926 0V80M16.994 0V80M12.9956 0V80M8.99707 0V80M4.99854 0V80M1 0V80" stroke="#282828"/>
</svg>
