<svg width="626" height="80" viewBox="0 0 626 80" fill="none" xmlns="http://www.w3.org/2000/svg">
<mask id="path-1-inside-1_3064_17419" fill="white">
<path d="M1 0H625V80H1V0Z"/>
</mask>
<path d="M1 1H625V-1H1V1Z" fill="#282828" mask="url(#path-1-inside-1_3064_17419)"/>
<path d="M1 0L1 80M5.00001 0L5 80M9.00001 0L9.00001 80M13 0L13 80M17 0L17 80M21 0L21 80M25 0L25 80M29 0L29 80M33 0L33 80M37 0L37 80M41 0L41 80M45 0L45 80M49 0L49 80M53 0L53 80M57.0001 0L57 80M61.0001 0L61.0001 80M65.0001 0V80M69.0001 0V80M73.0001 0V80M77.0001 0V80M81.0001 0V80M85.0001 0V80M89.0001 0V80M93.0001 0V80M97.0001 0V80M101 0V80M105 0V80M109 0V80M113 0V80M117 0V80M121 0V80M125 0V80M129 0V80M133 0V80M137 0V80M141 0V80M145 0V80M149 0V80M153 0V80M157 0V80M161 0V80M165 0V80M169 0V80M173 0V80M177 0V80M181 0V80M185 0V80M189 0V80M193 0V80M197 0V80M201 0V80M205 0V80M209 0V80M213 0V80M217 0V80M221 0V80M225 0V80M229 0V80M233 0V80M237 0V80M241 0V80M245 0V80M249 0V80M253 0V80M257 0V80M261 0V80M265 0V80M269 0V80M273 0V80M277 0V80M281 0V80M285 0V80M289 0V80M293 0V80M297 0V80M301 0V80M305 0V80M309 0V80M313 0V80M317 0V80M321 0V80M325 0V80M329 0V80M333 0V80M337 0V80M341 0V80M345 0V80M349 0V80M353 0V80M357 0V80M361 0V80M365 0V80M369 0V80M373 0V80M377 0V80M381 0V80M385 0V80M389 0V80M393 0V80M397 0V80M401 0V80M405 0V80M409 0V80M413 0V80M417 0V80M421 0V80M425 0V80M429 0V80M433 0V80M437 0V80M441 0V80M445 0V80M449 0V80M453 0V80M457 0V80M461 0V80M465 0V80M469 0V80M473 0V80M477 0V80M481 0V80M485 0V80M489 0V80M493 0V80M497 0V80M501 0V80M505 0V80M509 0V80M513 0V80M517 0V80M521 0V80M525 0V80M529 0V80M533 0V80M537 0V80M541 0V80M545 0V80M549 0V80M553 0V80M557 0V80M561 0V80M565 0V80M569 0V80M573 0V80M577 0V80M581 0V80M585 0V80M589 0V80M593 0V80M597 0V80M601 0V80M605 0V80M609 0V80M613 0V80M617 0V80M621 0V80M625 0V80" stroke="#282828"/>
<rect width="626" height="80" fill="url(#paint0_linear_3064_17419)"/>
<defs>
<linearGradient id="paint0_linear_3064_17419" x1="0" y1="40" x2="626" y2="40" gradientUnits="userSpaceOnUse">
<stop/>
<stop offset="0.75" stop-opacity="0"/>
</linearGradient>
</defs>
</svg>
