<svg width="24" height="24" viewBox="0 0 24 24" fill="none" xmlns="http://www.w3.org/2000/svg">
<path d="M19.1905 5.45519C19.1848 5.44406 19.1753 5.43534 19.1637 5.43058C17.8234 4.81565 16.409 4.37716 14.956 4.12608C14.9428 4.12362 14.9291 4.12539 14.917 4.13114C14.9049 4.13688 14.8948 4.1463 14.8884 4.15807C14.6958 4.50762 14.5209 4.86667 14.3645 5.23385C12.7982 4.99608 11.205 4.99608 9.63862 5.23385C9.48118 4.86574 9.30355 4.5066 9.10653 4.15807C9.09977 4.14656 9.08971 4.13735 9.07764 4.13165C9.06558 4.12594 9.05207 4.124 9.03889 4.12608C7.58566 4.37663 6.1712 4.81516 4.83111 5.43062C4.81964 5.43548 4.80996 5.44379 4.80341 5.45438C2.12348 9.4565 1.38935 13.3602 1.74949 17.2156C1.7505 17.225 1.7534 17.2342 1.75802 17.2425C1.76264 17.2508 1.76889 17.2581 1.77638 17.2639C3.33688 18.4194 5.08231 19.3013 6.9382 19.8721C6.95127 19.8761 6.96522 19.8759 6.97819 19.8716C6.99116 19.8674 7.00251 19.8593 7.01073 19.8484C7.40933 19.306 7.76252 18.7317 8.06671 18.1313C8.07089 18.123 8.07328 18.114 8.07372 18.1048C8.07415 18.0955 8.07263 18.0863 8.06924 18.0777C8.06586 18.0691 8.06069 18.0614 8.05408 18.0549C8.04747 18.0484 8.03956 18.0435 8.03089 18.0403C7.47393 17.8272 6.93473 17.5703 6.41834 17.272C6.40896 17.2665 6.40108 17.2588 6.3954 17.2495C6.38972 17.2402 6.38642 17.2297 6.38577 17.2188C6.38513 17.2079 6.38717 17.1971 6.39172 17.1872C6.39626 17.1773 6.40317 17.1687 6.41184 17.1621C6.52019 17.0809 6.62861 16.9965 6.73208 16.9112C6.74127 16.9036 6.75239 16.8988 6.76419 16.8972C6.776 16.8956 6.78801 16.8973 6.79887 16.9022C10.1819 18.4462 13.8445 18.4462 17.1875 16.9022C17.1984 16.897 17.2106 16.8951 17.2226 16.8965C17.2345 16.898 17.2458 16.9028 17.2552 16.9104C17.3587 16.9957 17.4671 17.0809 17.5762 17.1621C17.5849 17.1686 17.5919 17.1772 17.5965 17.187C17.6012 17.1969 17.6033 17.2077 17.6027 17.2186C17.6021 17.2295 17.5989 17.24 17.5933 17.2493C17.5877 17.2586 17.5799 17.2664 17.5705 17.272C17.0553 17.5728 16.5156 17.8295 15.9572 18.0395C15.9485 18.0428 15.9407 18.0479 15.9341 18.0544C15.9275 18.061 15.9224 18.0688 15.9191 18.0775C15.9158 18.0862 15.9143 18.0954 15.9148 18.1047C15.9154 18.114 15.9178 18.123 15.9221 18.1313C16.2313 18.7284 16.584 19.3019 16.9772 19.8474C16.9852 19.8586 16.9965 19.867 17.0095 19.8714C17.0226 19.8758 17.0366 19.8761 17.0498 19.872C18.909 19.3031 20.6575 18.4211 22.2199 17.2639C22.2275 17.2584 22.2339 17.2513 22.2385 17.2431C22.2431 17.2349 22.246 17.2258 22.2468 17.2164C22.678 12.7592 21.525 8.88746 19.1905 5.45519ZM8.57194 14.8681C7.5534 14.8681 6.71415 13.9334 6.71415 12.7854C6.71415 11.6375 7.53712 10.7028 8.57194 10.7028C9.61485 10.7028 10.446 11.6456 10.4297 12.7854C10.4297 13.9334 9.6067 14.8681 8.57194 14.8681ZM15.4408 14.8681C14.4223 14.8681 13.583 13.9334 13.583 12.7854C13.583 11.6375 14.406 10.7028 15.4408 10.7028C16.4838 10.7028 17.3148 11.6456 17.2986 12.7854C17.2986 13.9334 16.4838 14.8681 15.4408 14.8681Z" fill="white"/>
</svg>
