<svg width="20" height="20" viewBox="0 0 20 20" fill="none" xmlns="http://www.w3.org/2000/svg">
<path d="M10.0003 18.3337C5.39795 18.3337 1.66699 14.6027 1.66699 10.0003C1.66699 5.39795 5.39795 1.66699 10.0003 1.66699C14.6027 1.66699 18.3337 5.39795 18.3337 10.0003C18.3337 14.6027 14.6027 18.3337 10.0003 18.3337ZM8.09201 16.3898C7.28985 14.6886 6.79809 12.8122 6.68975 10.8337H3.38523C3.71533 13.4807 5.59732 15.6459 8.09201 16.3898ZM8.35924 10.8337C8.48457 12.866 9.06516 14.7751 10.0003 16.4603C10.9355 14.7751 11.5161 12.866 11.6414 10.8337H8.35924ZM16.6154 10.8337H13.3109C13.2026 12.8122 12.7108 14.6886 11.9087 16.3898C14.4033 15.6459 16.2853 13.4807 16.6154 10.8337ZM3.38523 9.16699H6.68975C6.79809 7.18847 7.28985 5.31205 8.09201 3.61079C5.59732 4.35477 3.71533 6.51991 3.38523 9.16699ZM8.35924 9.16699H11.6414C11.5161 7.13467 10.9355 5.22553 10.0003 3.54032C9.06516 5.22553 8.48457 7.13467 8.35924 9.16699ZM11.9087 3.61079C12.7108 5.31205 13.2026 7.18847 13.3109 9.16699H16.6154C16.2853 6.51991 14.4033 4.35477 11.9087 3.61079Z" fill="white"/>
</svg>
