<svg width="20" height="20" viewBox="0 0 20 20" fill="none" xmlns="http://www.w3.org/2000/svg">
<path d="M11 3.33301C11 3.62917 10.8713 3.89527 10.6667 4.07837V5.33301H14C15.1046 5.33301 16 6.22844 16 7.33301V13.9997C16 15.1043 15.1046 15.9997 14 15.9997H6C4.89543 15.9997 4 15.1043 4 13.9997V7.33301C4 6.22844 4.89543 5.33301 6 5.33301H9.33333V4.07837C9.12873 3.89527 9 3.62917 9 3.33301C9 2.78072 9.44773 2.33301 10 2.33301C10.5523 2.33301 11 2.78072 11 3.33301ZM2 8.66634H3.33333V12.6663H2V8.66634ZM18 8.66634H16.6667V12.6663H18V8.66634ZM8 11.6663C8.55229 11.6663 9 11.2186 9 10.6663C9 10.1141 8.55229 9.66634 8 9.66634C7.44771 9.66634 7 10.1141 7 10.6663C7 11.2186 7.44771 11.6663 8 11.6663ZM13 10.6663C13 10.1141 12.5523 9.66634 12 9.66634C11.4477 9.66634 11 10.1141 11 10.6663C11 11.2186 11.4477 11.6663 12 11.6663C12.5523 11.6663 13 11.2186 13 10.6663Z" fill="#FFCD62"/>
</svg>
