<svg width="24" height="24" viewBox="0 0 24 24" fill="none" xmlns="http://www.w3.org/2000/svg">
<path d="M4.3716 7.30063C4.39648 7.05512 4.30289 6.81238 4.11953 6.64719L2.25207 4.39758V4.06152H8.05039L12.5322 13.8907L16.4725 4.06152L22 4.06156V4.39758L20.4034 5.9284C20.2657 6.03328 20.1974 6.20582 20.226 6.37652V17.6245C20.1974 17.7952 20.2657 17.9677 20.4034 18.0725L21.9626 19.6034V19.9394H14.1196V19.6034L15.7348 18.0352C15.8936 17.8765 15.8936 17.8298 15.8936 17.5872V8.49543L11.4025 19.902H10.7956L5.56672 8.49543V16.1403C5.5232 16.4617 5.62992 16.7854 5.85617 17.0177L7.95711 19.566V19.902H2V19.566L4.10094 17.0177C4.32551 16.7849 4.42598 16.4591 4.3716 16.1403V7.30063Z" fill="white"/>
</svg>
