<svg width="20" height="20" viewBox="0 0 20 20" fill="none" xmlns="http://www.w3.org/2000/svg">
<path d="M3.33325 4.66227C3.33325 4.29651 3.63679 4 3.99445 4H16.0054C16.3706 4 16.6666 4.29663 16.6666 4.66227V15.3377C16.6666 15.7035 16.363 16 16.0054 16H3.99445C3.62929 16 3.33325 15.7034 3.33325 15.3377V4.66227ZM4.66659 5.33333V6.66667H5.99992V5.33333H4.66659ZM13.9999 5.33333V6.66667H15.3333V5.33333H13.9999ZM4.66659 8V9.33333H5.99992V8H4.66659ZM13.9999 8V9.33333H15.3333V8H13.9999ZM4.66659 10.6667V12H5.99992V10.6667H4.66659ZM13.9999 10.6667V12H15.3333V10.6667H13.9999ZM4.66659 13.3333V14.6667H5.99992V13.3333H4.66659ZM13.9999 13.3333V14.6667H15.3333V13.3333H13.9999Z" fill="#96FB58"/>
</svg>
