<svg width="20" height="20" viewBox="0 0 20 20" fill="none" xmlns="http://www.w3.org/2000/svg">
<path d="M4.16634 16.667H15.833V18.3337H4.16634V16.667ZM9.99967 15.0003C6.31777 15.0003 3.33301 12.0156 3.33301 8.33366C3.33301 4.65176 6.31777 1.66699 9.99967 1.66699C13.6816 1.66699 16.6663 4.65176 16.6663 8.33366C16.6663 12.0156 13.6816 15.0003 9.99967 15.0003ZM9.99967 13.3337C12.7611 13.3337 14.9997 11.0951 14.9997 8.33366C14.9997 5.57223 12.7611 3.33366 9.99967 3.33366C7.23825 3.33366 4.99967 5.57223 4.99967 8.33366C4.99967 11.0951 7.23825 13.3337 9.99967 13.3337Z" fill="white"/>
</svg>
