<svg width="24" height="24" viewBox="0 0 24 24" fill="none" xmlns="http://www.w3.org/2000/svg">
<path d="M20.2963 6.84961C19.6846 7.12031 19.0307 7.30313 18.3416 7.3875C19.0447 6.96563 19.5861 6.29766 19.8393 5.50312C19.1818 5.89336 18.4541 6.17812 17.6771 6.3293C17.0549 5.66484 16.1689 5.25 15.1916 5.25C13.3107 5.25 11.7885 6.77578 11.7885 8.65664C11.7885 8.92383 11.8166 9.18398 11.8764 9.43359C9.04629 9.29297 6.53613 7.93594 4.85918 5.87227C4.56738 6.375 4.39863 6.96211 4.39863 7.58437C4.39863 8.76562 4.9998 9.80977 5.91387 10.4215C5.35488 10.4074 4.82754 10.2527 4.37051 9.99609C4.37051 10.0102 4.37051 10.0242 4.37051 10.0383C4.37051 11.6906 5.54473 13.0652 7.10215 13.3781C6.81738 13.4555 6.51504 13.4977 6.20566 13.4977C5.98769 13.4977 5.77324 13.4766 5.56582 13.4344C5.99824 14.7879 7.25683 15.7723 8.74746 15.8004C7.58379 16.7145 6.11426 17.2594 4.51816 17.2594C4.24395 17.2594 3.97324 17.2418 3.70605 17.2102C5.21074 18.1875 7.00019 18.75 8.91972 18.75C15.1846 18.75 18.6088 13.5574 18.6088 9.05391C18.6088 8.90625 18.6053 8.75859 18.5982 8.61445C19.2627 8.13281 19.8393 7.53164 20.2963 6.84961Z" fill="white"/>
</svg>
