<svg width="16" height="16" viewBox="0 0 16 16" fill="none" xmlns="http://www.w3.org/2000/svg">
<path d="M13.5309 4.56641C13.123 4.74688 12.6871 4.86875 12.2277 4.925C12.6965 4.64375 13.0574 4.19844 13.2262 3.66875C12.7879 3.92891 12.3027 4.11875 11.7848 4.21953C11.3699 3.77656 10.7793 3.5 10.1277 3.5C8.87383 3.5 7.85898 4.51719 7.85898 5.77109C7.85898 5.94922 7.87773 6.12266 7.91758 6.28906C6.03086 6.19531 4.35742 5.29062 3.23945 3.91484C3.04492 4.25 2.93242 4.64141 2.93242 5.05625C2.93242 5.84375 3.3332 6.53984 3.94258 6.94766C3.56992 6.93828 3.21836 6.83516 2.91367 6.66406C2.91367 6.67344 2.91367 6.68281 2.91367 6.69219C2.91367 7.79375 3.69648 8.71016 4.73477 8.91875C4.54492 8.97031 4.34336 8.99844 4.13711 8.99844C3.9918 8.99844 3.84883 8.98437 3.71055 8.95625C3.99883 9.85859 4.83789 10.5148 5.83164 10.5336C5.05586 11.143 4.07617 11.5063 3.01211 11.5063C2.8293 11.5063 2.64883 11.4945 2.4707 11.4734C3.47383 12.125 4.6668 12.5 5.94648 12.5C10.123 12.5 12.4059 9.03828 12.4059 6.03594C12.4059 5.9375 12.4035 5.83906 12.3988 5.74297C12.8418 5.42187 13.2262 5.02109 13.5309 4.56641Z" fill="white" fill-opacity="0.6"/>
</svg>
